<?xml version="1.0" encoding="UTF-8" standalone="no"?>
<!-- Created with Inkscape (http://www.inkscape.org/) -->

<svg
   xmlns:dc="http://purl.org/dc/elements/1.1/"
   xmlns:cc="http://creativecommons.org/ns#"
   xmlns:rdf="http://www.w3.org/1999/02/22-rdf-syntax-ns#"
   xmlns:svg="http://www.w3.org/2000/svg"
   xmlns="http://www.w3.org/2000/svg"
   xmlns:sodipodi="http://sodipodi.sourceforge.net/DTD/sodipodi-0.dtd"
   xmlns:inkscape="http://www.inkscape.org/namespaces/inkscape"
   width="700"
   height="700"
   viewBox="0 0 1893.8868 1893.887"
   id="svg5809"
   version="1.1"
   inkscape:version="0.92.1 r15371"
   sodipodi:docname="wendys-logo.svg"
   inkscape:export-xdpi="561.73999"
   inkscape:export-ydpi="561.73999">
  <defs
     id="defs5811">
    <clipPath
       id="clipPath3297"
       clipPathUnits="userSpaceOnUse">
      <path
         inkscape:connector-curvature="0"
         id="path3299"
         d="m 15.75,694 h 81.833 v 90 H 15.75 Z" />
    </clipPath>
    <clipPath
       id="clipPath3097"
       clipPathUnits="userSpaceOnUse">
      <path
         inkscape:connector-curvature="0"
         id="path3099"
         d="m 15.75,694 h 81.833 v 90 H 15.75 Z" />
    </clipPath>
  </defs>
  <sodipodi:namedview
     id="base"
     pagecolor="#ffffff"
     bordercolor="#666666"
     borderopacity="1.0"
     inkscape:pageopacity="0.0"
     inkscape:pageshadow="2"
     inkscape:zoom="0.35"
     inkscape:cx="279.60355"
     inkscape:cy="79.092898"
     inkscape:document-units="px"
     inkscape:current-layer="g5644"
     showgrid="false"
     fit-margin-left="0.5"
     fit-margin-bottom="0.5"
     fit-margin-top="0.5"
     fit-margin-right="0.5"
     inkscape:window-width="1600"
     inkscape:window-height="838"
     inkscape:window-x="-8"
     inkscape:window-y="-8"
     inkscape:window-maximized="1" />
  <metadata
     id="metadata5814">
    <rdf:RDF>
      <cc:Work
         rdf:about="">
        <dc:format>image/svg+xml</dc:format>
        <dc:type
           rdf:resource="http://purl.org/dc/dcmitype/StillImage" />
        <dc:title></dc:title>
      </cc:Work>
    </rdf:RDF>
  </metadata>
  <g
     inkscape:label="Layer 1"
     inkscape:groupmode="layer"
     id="layer1"
     transform="translate(66.667256,1149.4626)">
    <g
       transform="matrix(6.4588709,0,0,-6.4588709,-29.911876,5194.408)"
       id="g5644">
      <g
         id="g5984"
         transform="matrix(3.6801199,0,0,3.6801199,-81.24243,-1882.9824)"
         inkscape:export-filename="C:\Users\alex\sites\wendys-logo-7.png"
         inkscape:export-xdpi="67.530235"
         inkscape:export-ydpi="67.530235">
        <g
           id="g3293"
           style="fill:#bb252d;fill-opacity:1">
          <g
             clip-path="url(#clipPath3297)"
             id="g3295"
             style="fill:#bb252d;fill-opacity:1">
            <g
               transform="translate(68.7272,726.257)"
               id="g3301"
               style="fill:#bb252d;fill-opacity:1">
              <path
                 id="path3303"
                 style="fill:#bb252d;fill-opacity:1;fill-rule:nonzero;stroke:none"
                 d="M 0,0 C -0.345,-0.719 -0.739,-1.36 -1.171,-1.904 -1.6,-2.447 -2.044,-2.88 -2.49,-3.193 c -0.388,-0.275 -0.712,-0.486 -0.978,-0.439 -0.172,0.043 -0.149,0.346 -0.128,0.541 0.06,0.558 0.239,1.122 0.531,1.678 0.296,0.568 0.663,1.098 1.088,1.575 0.432,0.475 0.902,0.872 1.398,1.179 0.39,0.242 0.776,0.41 1.153,0.501 C 0.468,1.198 0.275,0.579 0,0 M 4.65,12.63 C 3.536,12.806 2.731,11.958 2.378,11.122 2.253,10.829 2.217,10.678 2.097,10.3 1.977,9.928 1.93,9.647 1.838,9.263 1.772,8.987 1.671,8.558 1.63,8.368 1.554,8.021 1.545,7.967 1.447,7.44 1.35,6.919 1.286,6.57 1.217,6.108 1.163,5.757 1.11,5.466 1.056,5.114 0.256,4.926 -0.563,4.605 -1.377,4.164 -2.256,3.688 -3.075,3.062 -3.812,2.305 -4.551,1.55 -5.191,0.657 -5.711,-0.344 c -0.526,-1.014 -0.86,-2.148 -0.992,-3.369 -0.017,-0.15 -0.027,-0.31 -0.033,-0.478 -0.103,0.09 -0.205,0.188 -0.286,0.31 -0.156,0.233 -0.269,0.501 -0.345,0.827 -0.075,0.32 -0.12,0.722 -0.117,1.037 0.003,0.347 0.016,0.57 0.041,0.799 0.029,0.262 0.064,0.508 0.109,0.733 0.026,0.146 0.044,0.281 0.062,0.413 0.012,0.087 0.023,0.172 0.038,0.256 0.159,0.977 0.229,1.632 0.133,2.299 -0.064,0.442 -0.421,1.291 -1.315,1.319 -0.07,0.002 -0.143,0 -0.22,-0.008 -0.602,-0.057 -1.306,-0.387 -1.737,-0.686 -0.574,-0.399 -1.112,-0.897 -1.599,-1.479 -0.207,-0.247 -0.37,-0.47 -0.506,-0.679 0.086,0.263 0.199,0.526 0.31,0.781 0.069,0.157 0.137,0.314 0.198,0.472 0.007,0.018 0.015,0.038 0.023,0.056 0.146,0.371 0.298,0.753 0.332,1.061 0.029,0.277 -0.014,0.503 -0.129,0.67 -0.095,0.137 -0.215,0.241 -0.358,0.311 -0.139,0.062 -0.28,0.093 -0.418,0.093 -0.098,0.003 -0.184,10e-4 -0.243,-0.004 -0.345,-0.03 -0.654,-0.137 -0.916,-0.311 -0.23,-0.149 -0.425,-0.309 -0.605,-0.496 -0.178,-0.205 -0.334,-0.418 -0.456,-0.628 -0.19,-0.306 -0.368,-0.724 -0.542,-1.278 -0.162,-0.514 -0.317,-1.088 -0.462,-1.703 -0.142,-0.596 -0.272,-1.211 -0.388,-1.829 -0.114,-0.61 -0.197,-1.146 -0.246,-1.592 -0.058,-0.547 -0.101,-1.078 -0.126,-1.58 -0.028,-0.521 -0.018,-0.996 0.028,-1.408 0.05,-0.439 0.156,-0.797 0.317,-1.064 0.202,-0.332 0.532,-0.486 0.959,-0.443 0.008,0 0.015,0.002 0.021,0.002 0.08,0.011 0.358,0.051 0.617,0.141 0.24,0.083 0.604,0.343 0.912,0.827 0.178,0.276 0.359,1.006 0.577,1.931 0.051,0.212 0.097,0.407 0.136,0.562 0.853,3.33 2.092,4.029 2.704,4.157 -0.042,-0.376 -0.085,-0.752 -0.127,-1.127 -0.03,-0.491 -0.065,-0.926 -0.076,-1.442 0.014,-0.977 0.111,-1.535 0.229,-2.02 0.135,-0.553 0.386,-1.221 0.69,-1.571 0.358,-0.41 0.703,-0.679 1.326,-0.642 0.002,0 0.006,0 0.009,10e-4 0.002,0 0.004,0 0.006,0 0.271,0.038 0.408,0.061 0.699,0.183 0.296,0.141 0.434,0.244 0.691,0.493 0.184,0.177 0.295,0.349 0.372,0.519 0.113,-0.206 0.256,-0.39 0.431,-0.548 0.274,-0.245 0.667,-0.36 1.168,-0.344 0.011,0.001 0.023,0.001 0.035,0.002 0.055,0.003 0.175,0.016 0.562,0.068 0.354,0.047 0.783,0.187 1.28,0.411 0.485,0.22 1.038,0.564 1.646,1.02 0.426,0.321 0.866,0.739 1.309,1.245 -0.043,-0.709 -0.078,-1.385 0.232,-2.313 0.127,-0.382 0.293,-0.695 0.551,-1.048 0.288,-0.388 0.727,-0.586 1.309,-0.591 h 0.004 c 0.024,0.002 0.045,0.003 0.068,0.005 0.277,0.046 0.506,0.118 0.699,0.22 0.198,0.104 0.385,0.256 0.555,0.451 0.205,0.235 0.327,0.537 0.367,0.902 0.011,0.11 0.006,0.235 -0.019,0.386 -0.024,0.146 -0.098,0.259 -0.175,0.377 -0.032,0.046 -0.065,0.096 -0.098,0.152 -0.193,0.337 -0.315,0.616 -0.371,0.852 -0.146,0.617 -0.183,1.135 -0.155,2.132 0.013,0.476 0.05,0.998 0.088,1.495 0.038,0.487 0.093,0.985 0.15,1.513 C 3.26,0.801 3.297,1.146 3.335,1.488 3.347,1.611 3.359,1.717 3.372,1.81 3.394,1.809 3.418,1.809 3.442,1.809 3.698,1.806 3.966,1.894 4.233,2.077 4.547,2.296 4.738,2.694 4.8,3.26 4.852,3.743 4.733,4.136 4.445,4.428 4.268,4.603 4.07,4.753 3.858,4.876 3.889,5.059 3.92,5.231 3.943,5.389 3.974,5.592 4.007,5.769 4.041,5.915 4.063,6.017 4.083,6.119 4.104,6.222 4.121,6.31 4.136,6.397 4.155,6.481 4.16,6.5 4.51,8.133 5.21,10.566 c 0.113,0.395 0.166,0.698 0.193,0.953 0.04,0.373 -0.051,1 -0.753,1.111 M 14.691,4.058 C 14.747,3.831 14.758,3.552 14.725,3.207 14.694,2.885 14.632,2.525 14.542,2.134 14.538,2.119 14.038,0.159 13.84,-0.78 13.683,-1.527 13.586,-2.11 13.473,-2.786 13.471,-2.8 13.469,-2.815 13.465,-2.83 13.357,-3.49 13.189,-4.956 13.09,-5.991 c -0.192,-1.999 -0.237,-2.475 -0.786,-4.015 -0.561,-1.575 -1.844,-2.619 -2.443,-2.954 -1.085,-0.606 -2.306,-0.921 -3.633,-0.948 -0.004,0 -0.007,0 -0.011,0 -0.003,0 -0.007,10e-4 -0.01,0.002 -0.063,0.007 -0.134,0.012 -0.21,0.017 -0.143,0.01 -0.307,0.021 -0.464,0.049 -1.394,0.25 -2.199,1.135 -2.049,2.281 0.079,0.599 0.547,0.964 1.149,0.874 0.565,-0.094 1.087,-0.14 1.558,-0.135 1.447,0.016 2.44,0.495 3.034,1.491 0.619,1.037 0.694,1.719 0.799,2.663 0.013,0.122 0.027,0.248 0.042,0.38 0.058,0.487 0.102,0.938 0.149,1.412 C 9.981,-5.184 9.753,-5.445 9.532,-5.656 9.085,-6.081 8.675,-6.406 8.31,-6.623 7.873,-6.879 7.446,-7.029 7.041,-7.069 c -0.004,0 -0.009,-0.001 -0.013,-0.001 -0.005,0.001 -0.01,0.001 -0.014,0.001 -0.666,0.014 -1.179,0.271 -1.528,0.763 -0.307,0.426 -0.543,0.964 -0.699,1.598 -0.152,0.618 -0.232,1.28 -0.237,1.97 -0.007,0.671 0.017,1.3 0.072,1.87 0.17,1.769 0.535,3.18 1.084,4.186 0.608,1.121 1.382,1.688 2.298,1.667 0.049,0 0.119,-0.008 0.249,-0.022 C 8.418,4.94 8.562,4.885 8.689,4.799 8.829,4.709 8.942,4.576 9.035,4.392 9.13,4.201 9.162,3.964 9.135,3.671 9.106,3.373 8.994,3.046 8.792,2.672 8.61,2.326 8.439,1.934 8.283,1.509 8.151,1.145 8.017,0.707 7.884,0.21 7.751,-0.275 7.657,-0.797 7.605,-1.343 7.596,-1.43 7.581,-1.62 7.565,-1.926 7.548,-2.172 7.55,-2.428 7.572,-2.712 7.591,-2.955 7.638,-3.163 7.71,-3.33 7.75,-3.428 7.878,-3.495 7.918,-3.503 7.972,-3.515 8.03,-3.527 8.104,-3.527 c 0.128,0 0.26,0.042 0.391,0.124 0.1,0.064 0.344,0.273 0.631,0.659 0.201,0.272 0.587,0.841 0.905,1.596 0.149,0.352 0.34,0.928 0.541,1.539 0.227,0.687 0.625,2.036 0.854,2.601 0.148,0.361 0.31,0.678 0.497,0.97 0.169,0.262 0.446,0.534 0.662,0.675 0.322,0.213 0.679,0.324 1.079,0.304 0.091,-0.005 0.188,-0.027 0.315,-0.059 0.17,-0.044 0.319,-0.136 0.442,-0.271 0.119,-0.127 0.208,-0.308 0.27,-0.553 m 0.7,0.29 c -0.039,0.161 -0.068,0.361 0.01,0.63 0.035,0.12 0.147,0.399 0.213,0.662 0.078,0.347 0.109,0.693 0.025,1.016 -0.074,0.284 -0.092,0.696 -0.013,0.932 0.121,0.359 0.453,0.55 0.688,0.59 0.357,0.06 0.713,0.037 1.014,-0.111 0.329,-0.162 0.609,-0.554 0.68,-0.838 C 18.157,6.63 18.09,6.151 18.02,5.769 17.938,5.312 17.748,4.896 17.544,4.555 17.399,4.312 17.156,4.102 16.948,3.952 16.692,3.769 16.272,3.7 15.831,3.86 15.629,3.934 15.428,4.201 15.391,4.348 m 7.345,-8.465 c -0.106,-0.766 -0.418,-1.403 -0.925,-1.895 -0.473,-0.459 -1.024,-0.825 -1.635,-1.087 -0.603,-0.255 -1.223,-0.424 -1.843,-0.502 -0.561,-0.068 -1.051,-0.083 -1.454,-0.043 -0.038,0.003 -0.075,0.008 -0.109,0.012 -0.976,0.125 -1.641,0.435 -2.029,0.958 -0.386,0.522 -0.542,1.062 -0.466,1.608 0.09,0.648 0.429,0.963 0.698,1.111 0.326,0.183 0.609,0.261 0.864,0.239 0.009,-10e-4 0.019,-0.002 0.03,-0.005 0.255,-0.029 0.55,-0.16 0.899,-0.398 0.235,-0.163 0.549,-0.271 0.934,-0.322 0.52,-0.067 0.913,-0.039 1.167,0.087 0.183,0.087 0.289,0.184 0.301,0.273 0.006,0.04 0.017,0.122 -0.123,0.255 -0.171,0.163 -0.405,0.322 -0.695,0.469 -0.307,0.155 -0.644,0.316 -1.032,0.492 -0.399,0.177 -0.768,0.388 -1.099,0.623 -0.358,0.252 -0.648,0.55 -0.863,0.883 -0.245,0.385 -0.332,0.84 -0.26,1.353 0.081,0.587 0.341,1.192 0.767,1.797 0.406,0.575 0.91,1.097 1.501,1.548 0.587,0.447 1.242,0.802 1.946,1.053 0.728,0.256 1.451,0.337 2.147,0.233 0.67,-0.099 1.187,-0.404 1.534,-0.902 0.346,-0.504 0.46,-1.198 0.341,-2.061 C 23.273,1.245 23.123,0.865 22.882,0.528 22.68,0.247 22.292,-0.074 21.582,0.039 21.099,0.111 20.905,0.372 20.828,0.58 20.76,0.75 20.705,0.936 20.665,1.128 20.637,1.255 20.63,1.42 20.547,1.506 20.497,1.55 20.4,1.583 20.279,1.574 c 0,0 -0.11,0.006 -0.349,-0.063 C 19.719,1.446 19.508,1.354 19.306,1.237 19.096,1.116 18.905,0.964 18.74,0.787 18.609,0.646 18.53,0.498 18.504,0.348 18.492,0.275 18.485,0.15 18.64,0.001 c 0.192,-0.182 0.439,-0.365 0.738,-0.545 0.3,-0.183 0.645,-0.367 1.054,-0.562 0.431,-0.205 0.82,-0.439 1.154,-0.696 0.357,-0.271 0.651,-0.587 0.874,-0.934 0.255,-0.399 0.349,-0.864 0.276,-1.381 m -42.058,3.206 c -0.332,-0.514 -0.664,-0.915 -1.017,-1.223 -0.394,-0.345 -0.688,-0.531 -1.064,-0.738 -0.164,-0.09 -0.299,-0.141 -0.413,-0.172 0.056,0.308 0.16,0.721 0.304,1.064 0.212,0.509 0.485,1.011 0.81,1.492 0.384,0.567 0.695,0.939 1.012,1.205 0.22,0.186 0.413,0.297 0.558,0.321 0.323,0.056 0.339,-0.362 0.338,-0.445 -0.002,-0.503 -0.286,-1.124 -0.528,-1.504 m 2.139,4.224 c -0.26,0.178 -0.553,0.281 -0.869,0.306 -0.27,0.018 -0.601,0.004 -0.845,-0.036 -0.006,0 -0.012,-0.001 -0.018,-0.002 -0.525,-0.089 -1.075,-0.274 -1.464,-0.49 -0.399,-0.217 -0.788,-0.496 -1.157,-0.832 -0.311,-0.284 -0.669,-0.628 -0.975,-1.037 -0.2,-0.265 -0.579,-0.8 -0.888,-1.396 -0.416,-0.802 -0.778,-1.735 -1.106,-2.848 -0.205,0 -0.653,0.091 -0.858,0.131 -0.145,0.029 -0.195,0.038 -0.226,0.04 -0.033,0 -0.06,10e-4 -0.087,0.002 0.949,3.948 1.611,6.184 2.095,7.733 0.263,0.756 0.526,1.512 0.788,2.268 0.206,0.428 0.331,1.014 0.311,1.285 -0.054,0.792 -0.6,1.592 -1.572,1.377 -1.031,-0.228 -1.638,-1.541 -2.458,-4.434 -0.691,-2.435 -1.083,-3.987 -1.644,-6.618 -0.243,-1.199 -0.486,-2.398 -0.726,-3.597 -0.037,-0.18 -0.073,-0.361 -0.108,-0.54 -0.082,-0.374 -0.125,-0.481 -0.257,-0.511 -0.066,-0.015 -0.149,0.031 -0.187,0.184 -0.086,0.335 -0.158,1.029 -0.209,1.919 -0.065,2.05 -0.236,4.174 -0.162,6.862 0.043,1.536 0.041,1.783 -0.06,2.176 -0.194,0.761 -1.137,1.213 -2.164,0.953 -1.028,-0.261 -1.33,-1.415 -1.923,-2.989 -0.4,-1.066 -1.007,-2.961 -1.61,-4.8 -0.565,-1.904 -1.23,-4.236 -1.23,-4.236 -0.042,-0.162 -0.082,-0.323 -0.124,-0.484 -0.041,-0.161 -0.082,-0.322 -0.123,-0.484 -0.147,-0.394 -0.198,-0.472 -0.296,-0.5 -0.1,-0.027 -0.156,0.054 -0.186,0.174 -0.062,0.239 -0.052,1.767 -0.033,2.573 0.038,1.642 0.198,3.425 0.351,5.02 0.088,1.151 0.383,3.164 0.472,4.315 0.031,0.347 0.062,0.712 0.07,0.959 0.019,0.733 -0.031,1.087 -0.351,1.45 -0.501,0.441 -1.112,0.407 -1.817,0.247 -1.135,-0.258 -1.985,-0.961 -1.884,-1.347 0.016,-0.058 0.075,-0.114 0.133,-0.199 0.172,-0.249 0.262,-0.389 0.331,-0.641 0.082,-0.297 0.121,-0.708 0.119,-1.371 -0.025,-0.593 -0.05,-1.188 -0.075,-1.783 -0.143,-1.794 -0.359,-5.026 -0.417,-7.237 -0.051,-1.909 0.014,-3.234 0.164,-5.122 0.076,-0.949 0.277,-1.724 0.385,-2.141 0.192,-0.746 0.571,-1.575 1.227,-1.741 0.487,-0.123 0.863,-0.094 1.504,0.074 0.589,0.153 1.481,0.716 1.678,1.603 0.25,0.988 0.502,1.976 0.753,2.964 0.224,1.055 0.731,2.924 1.163,4.546 0.249,0.965 0.573,2.045 0.747,2.605 0.104,0.283 0.155,0.36 0.221,0.377 0.067,0.017 0.107,-0.005 0.122,-0.066 0.008,-0.031 0.017,-0.076 0.02,-0.18 0.003,-0.067 0.005,-0.133 0.007,-0.2 0.005,-0.202 0.01,-0.405 0.014,-0.608 0.049,-1.984 0.429,-5.398 0.786,-6.795 0.233,-0.913 0.299,-2.041 1.707,-2.248 0.65,-0.098 1.191,0.086 1.191,0.086 1.038,0.316 1.307,0.914 1.54,1.935 0.152,0.646 0.621,2.426 0.878,3.572 0.078,0.348 0.154,0.683 0.229,1.011 0.19,-0.061 1.055,-0.196 1.416,-0.227 0.004,-0.109 0.009,-0.166 0.021,-0.236 0.009,-0.067 0.018,-0.126 0.026,-0.183 0.013,-0.088 0.023,-0.168 0.042,-0.256 0.025,-0.116 0.05,-0.231 0.075,-0.345 0.15,-0.6 0.384,-1.111 0.693,-1.52 0.299,-0.399 0.609,-0.67 1.038,-0.905 0.407,-0.222 1.104,-0.319 1.765,-0.251 0.094,0.003 0.18,0.01 0.27,0.027 0.018,0.002 0.035,0.005 0.052,0.01 0.045,0.008 0.089,0.017 0.135,0.026 0,0.001 0.001,0.003 0.001,0.006 0.098,0.022 0.218,0.051 0.31,0.078 1.038,0.298 2.374,1.22 2.855,2.571 0.188,0.532 0.083,0.865 -0.038,1.051 -0.132,0.202 -0.35,0.325 -0.571,0.321 -0.075,-0.002 -0.148,-0.009 -0.219,-0.021 -0.452,-0.072 -0.794,-0.328 -1.095,-0.554 -0.272,-0.204 -0.529,-0.397 -0.849,-0.459 -0.365,-0.07 -0.614,-0.061 -0.825,0.043 -0.235,0.116 -0.315,0.202 -0.41,0.442 -0.057,0.143 -0.088,0.306 -0.115,0.519 0.589,0.151 1.271,0.451 1.819,0.807 0.627,0.407 1.199,0.905 1.699,1.479 0.497,0.574 0.913,1.209 1.237,1.891 0.309,0.652 0.534,1.516 0.587,2.257 0.042,0.568 -0.019,1.038 -0.178,1.398 -0.164,0.354 -0.379,0.623 -0.638,0.797"
                 inkscape:connector-curvature="0" />
            </g>
          </g>
        </g>
        <g
           transform="translate(91.8998,718.8691)"
           id="g3125"
           style="fill:#000000">
          <path
             id="path3127"
             style="fill:#000000;fill-opacity:1;fill-rule:nonzero;stroke:none"
             d="m 0,0 h 0.078 c 0.09,0 0.163,0.03 0.163,0.103 0,0.065 -0.047,0.108 -0.15,0.108 C 0.047,0.211 0.016,0.207 0,0.202 Z M -0.004,-0.397 H -0.168 V 0.31 c 0.064,0.008 0.155,0.022 0.271,0.022 0.134,0 0.193,-0.022 0.241,-0.057 0.043,-0.03 0.073,-0.081 0.073,-0.15 0,-0.086 -0.064,-0.142 -0.146,-0.168 V -0.052 C 0.34,-0.073 0.374,-0.129 0.396,-0.224 0.417,-0.332 0.434,-0.37 0.448,-0.397 H 0.275 C 0.254,-0.37 0.241,-0.31 0.219,-0.224 0.206,-0.151 0.163,-0.116 0.073,-0.116 h -0.077 z m 0.107,0.931 c -0.305,0 -0.543,-0.254 -0.543,-0.564 0,-0.314 0.238,-0.564 0.551,-0.564 0.306,-0.005 0.539,0.25 0.539,0.56 0,0.314 -0.233,0.568 -0.542,0.568 z m 0.008,0.142 c 0.401,0 0.72,-0.31 0.72,-0.706 0,-0.397 -0.319,-0.711 -0.723,-0.711 -0.406,0 -0.728,0.314 -0.728,0.711 0,0.396 0.322,0.706 0.728,0.706 z"
             inkscape:connector-curvature="0" />
        </g>
      </g>
      <g
         transform="matrix(1.9703314,0,0,-1.9703314,81.646676,934.21813)"
         style="fill:none;fill-rule:evenodd;stroke:none;stroke-width:1"
         id="Rachel---VD"
         inkscape:export-filename="C:\Users\alex\sites\wendys-logo-7.png"
         inkscape:export-xdpi="67.530235"
         inkscape:export-ydpi="67.530235">
        <g
           id="branding/cameo/full-color">
          <g
             id="Cameo_Full_RGB">
            <path
               style="fill:#3b302f"
               inkscape:connector-curvature="0"
               d="m 30.053397,2.9945567 c -14.521722,0 -26.2940669,11.8364943 -26.2940669,26.4377733 0,14.601278 11.7723449,26.438062 26.2940669,26.438062 14.521723,0 26.29378,-11.836784 26.29378,-26.438062 0,-14.601279 -11.772057,-26.4377733 -26.29378,-26.4377733"
               id="Fill-1" />
            <path
               style="fill:#fffffe"
               inkscape:connector-curvature="0"
               d="m 30.053397,53.782804 c -13.353588,0 -24.2173204,-10.923464 -24.2173204,-24.350474 0,-13.426722 10.8637324,-24.3501857 24.2173204,-24.3501857 13.353589,0 24.217321,10.9234637 24.217321,24.3501857 0,13.42701 -10.863732,24.350474 -24.217321,24.350474"
               id="Fill-2" />
            <path
               style="fill:#efd1cf"
               inkscape:connector-curvature="0"
               d="m 42.529378,29.482845 c -0.485455,0.451464 -0.805263,0.349856 -0.953397,0.250557 2.87e-4,0.0029 5.74e-4,0.0061 8.61e-4,0.0092 -2.87e-4,-0.0032 -0.0011,-0.0064 -0.0014,-0.0092 -0.150431,0.848371 -0.365742,2.394722 -0.731196,3.694845 -0.668326,2.377114 -1.408134,3.385114 -2.212823,4.329897 -0.618661,0.728578 -1.138852,1.20833 -2.159713,2.167258 -0.88823,0.835382 -1.550527,1.420784 -2.828326,2.163217 -0.594545,0.345525 -1.588134,1.064577 -3.415119,1.085649 -1.941531,0.02338 -3.35713,-0.965856 -4.127943,-1.454845 -0.868995,-0.550763 -1.21177,-0.829609 -1.983445,-1.452248 -0.576172,-0.464742 -1.48134,-1.21901 -1.920287,-1.681732 -0.748421,-0.788041 -1.537321,-1.680866 -2.15799,-2.802309 -0.620383,-1.07468 -0.953972,-1.896784 -1.356173,-3.674639 -0.08813,-0.389402 -0.328134,-1.624578 -0.489186,-2.36932 0,-8.66e-4 0,-0.002 0,-0.0029 h -2.87e-4 c -0.215598,0.185608 -0.634163,0.084 -0.95311,-0.250557 -0.508996,-0.533732 -1.075694,-1.837031 -1.032632,-2.970598 0.03761,-0.983175 0.257225,-2.064784 0.832249,-2.198722 0.428899,-0.09988 0.621818,0.116042 0.805263,0.538351 0.09847,0.227175 0.19177,0.857031 0.19177,0.857031 0,0 0.157895,-2.082103 1.478182,-3.068743 1.571196,-1.173979 8.236651,-1.860701 12.684976,-7.407587 -0.447273,2.584082 -1.669665,4.88701 -4.079426,7.200041 4.280096,0.550474 8.917321,-5.735959 9.121149,-7.045031 0.643923,3.002639 4.519808,6.743093 4.683158,9.461402 0.198947,-0.415381 0.376363,-0.638227 0.805263,-0.53835 0.575024,0.133938 0.81244,1.214969 0.831962,2.198721 0.0221,1.122021 -0.492345,2.468619 -1.032345,2.970598"
               id="Fill-3" />
            <path
               style="fill:#efd1cf"
               inkscape:connector-curvature="0"
               d="m 37.318565,40.683423 c -2.684785,2.294268 -4.994067,3.738433 -7.181914,3.764412 -2.148804,0.02482 -4.394067,-1.406062 -7.357321,-3.863711 -0.02412,1.185525 -0.03359,2.362391 -0.05742,3.968783 0.128325,0.210722 0.29311,0.459547 0.519904,0.775629 0.390431,0.545856 0.952249,-1.295505 1.630335,-0.910722 0.725742,0.41365 0.688708,1.702227 1.465837,2.315341 0.460766,0.362845 1.318852,-1.701939 1.771292,-0.571835 0.488039,1.221319 1.363062,1.501319 2.311292,1.987422 0.423732,-0.37468 1.043541,-0.426928 1.56201,-1.042062 0.486603,-0.576453 0.777416,-1.165896 1.136842,-1.277897 0.554641,-0.172907 0.881914,1.203423 1.481627,0.983753 0.977799,-0.359959 0.805837,-2.171588 1.713301,-2.41666 0.45933,-0.124701 0.533397,0.66998 1.076842,0.752536 0.194354,0.03002 0.385263,-0.19802 0.563254,-0.537196 l -0.02038,-1.197649 c -0.186029,0.36833 -0.414545,-0.195134 -0.615502,-2.730144"
               id="Fill-4" />
            <path
               style="fill:#2390c1"
               inkscape:connector-curvature="0"
               d="m 29.862488,49.294433 c 0.246316,-0.10132 0.730622,-0.143175 1.034067,0.06206 0.29311,0.197732 0.442392,0.337443 0.581053,0.594062 0.142392,0.264123 0.271866,0.651216 0.180861,1.07468 -0.12689,0.587423 -0.893971,1.040041 -1.715598,0.82932 -1.376555,-0.353031 -0.887656,-2.228454 -0.08038,-2.560124"
               id="Fill-5" />
            <path
               style="fill:#2390c1"
               inkscape:connector-curvature="0"
               d="m 23.216268,46.677443 c -0.596555,-0.09814 -0.806986,-0.41567 -0.999617,-0.807959 -0.09588,0.363135 -0.219905,0.772454 -0.571005,1.551258 -0.473397,1.057361 -1.863732,2.166681 -0.447847,2.587258 0.455598,0.112866 0.730048,-0.06726 0.915789,-0.234392 0.781436,-0.710103 1.500862,-2.249526 1.879235,-3.318144 -0.219043,0.151546 -0.488613,0.269608 -0.776555,0.221979"
               id="Fill-6" />
            <path
               style="fill:#2390c1"
               inkscape:connector-curvature="0"
               d="m 26.063541,48.085237 c -0.258374,-0.04619 -0.558374,-0.313773 -0.831101,-0.679216 -0.496938,2.388659 -1.381435,3.091546 -1.074258,3.76701 0.105646,0.227175 0.346507,0.417979 0.346507,0.417979 0.16622,0.103052 0.319521,0.149815 0.465646,0.155588 0.231387,-8.66e-4 0.473397,-0.05571 0.655694,-0.268742 0.782009,-0.962681 1.344689,-2.61699 1.501435,-3.677815 -0.25378,0.188784 -0.621818,0.364289 -1.063923,0.285196"
               id="Fill-7" />
            <path
               style="fill:#2390c1"
               inkscape:connector-curvature="0"
               d="m 34.750335,48.196083 c -0.500096,0.0023 -0.838852,-0.256042 -1.083732,-0.475423 0.421435,1.865608 1.106986,3.180165 1.510335,3.692825 0.180287,0.210721 0.422584,0.344371 0.698469,0.392288 0.182296,0.0075 0.311196,-0.01645 0.469952,-0.09786 0,0 0.343062,-0.158474 0.427177,-0.393154 0.22823,-0.636495 -0.654259,-1.636124 -1.100957,-3.679547 -0.254928,0.320413 -0.563541,0.559423 -0.921244,0.560867"
               id="Fill-8" />
            <path
               style="fill:#2390c1"
               inkscape:connector-curvature="0"
               d="m 38.336555,45.84033 c -0.228517,0.326186 -0.532536,0.698557 -0.76622,0.761196 -0.361148,0.09814 -0.709952,-0.218516 -0.907464,-0.447134 0.448708,2.126268 1.453493,3.237319 1.723349,3.521938 0.296555,0.310309 0.527656,0.339753 0.786316,0.358804 0.321244,0.02656 0.541148,-0.0739 0.739809,-0.290969 0.442392,-0.657278 -0.66402,-1.682021 -1.201723,-2.925567 C 38.550718,46.44565 38.42067,46.13967 38.336555,45.84033"
               id="Fill-9" />
            <path
               style="fill:#2390c1"
               inkscape:connector-curvature="0"
               d="m 51.326124,35.719051 c 0.724019,-0.804494 1.9289,-1.830391 1.144594,-2.617855 -0.406507,-0.408454 -1.094354,-0.784866 -1.828421,-1.141938 -0.744115,-0.36198 -1.504307,-0.626392 -1.938086,-0.655258 -1.040957,-0.06957 -2.051771,3.943381 -2.04,4.471629 0.03273,0.563175 0.225645,0.622928 0.171387,0.710103 -0.06402,0.101897 -1.130526,-0.114598 -1.826411,1.129237 -0.469378,0.838557 -0.675216,1.842515 -0.193493,2.154557 0.490622,0.317814 -0.541436,0.613402 -1.332345,1.348618 -0.950239,0.883877 -1.721052,2.197856 -1.771292,2.364701 -0.142392,0.45031 -0.186602,0.785155 0.994737,1.654021 0.933302,0.686144 2.649474,1.097773 2.949761,1.143381 0.931292,0.140866 1.305933,-0.334556 1.494258,-1.23633 0.218756,-1.048701 0.344785,-1.672783 0.450718,-2.158309 0.411675,-1.882062 -0.183445,-1.636124 -0.135502,-1.913814 0.03445,-0.200041 0.726315,0.208124 1.479904,-0.992124 0.142966,-0.218804 0.779713,-1.364783 0.411675,-1.689814 -0.299426,-0.264701 -0.113398,-0.37699 0.05483,-0.560289 0.459904,-0.501113 0.927273,-0.913608 1.913684,-2.010516"
               id="Fill-10" />
            <path
               style="fill:#2390c1"
               inkscape:connector-curvature="0"
               d="m 17.794163,42.849237 c -0.317512,-0.364 -2.365263,-2.382598 -2.490144,-2.507299 -0.350526,-0.348412 -0.155311,-0.438185 -0.01608,-0.67835 0.219043,-0.37699 -0.537991,-2.402516 -1.470431,-2.498351 -0.729761,-0.07505 -0.0933,-0.174062 -0.08928,-0.606474 -8.62e-4,-0.282887 -0.405646,-2.385773 -0.744402,-3.642887 -0.400192,-1.484866 -1.301914,-1.549814 -1.655885,-1.524701 -0.27646,0.02165 -1.6972253,0.39633 -2.6523449,1.195052 -0.9958852,0.760618 -1.0111005,1.317443 -0.885933,1.713196 0.1007655,0.31435 0.5807655,1.191876 0.9519617,1.664123 1.058756,1.307052 2.6440192,1.635258 1.9840192,2.099134 -0.191483,0.210722 -0.140383,0.570392 0.08584,1.382103 0.18201,0.50198 0.358565,0.944784 0.537417,1.229691 0.585071,1.088536 1.24622,0.67431 1.329186,0.840577 0.05167,0.104207 -0.131196,0.221691 -0.124593,0.720784 0.0034,0.244784 0.359426,0.946804 0.617512,1.816825 0.362009,1.220165 0.884497,2.437154 1.633493,2.462268 1.531579,0.05109 3.451579,-1.224495 3.643062,-1.970681 0.207272,-0.808247 -0.324689,-1.31802 -0.653397,-1.69501"
               id="Fill-11" />
            <path
               style="fill:#bb252d"
               inkscape:connector-curvature="0"
               d="m 46.785072,35.042722 c -0.420574,-0.623506 -1.087177,-1.209485 -2.244976,-1.568 8.0911,-9.282433 0.943349,-20.732413 0.116555,-22.832701 C 42.941627,6.2841237 40.657608,0.71674227 35.045454,2.4865155 34.151483,-0.76812371 24.623541,-0.37352577 20.395981,3.1117526 16.205454,6.5667216 13.849665,11.225113 12.76823,18.909237 c -0.867273,2.036784 -2.9101439,8.275588 2.783827,14.711835 -0.914641,0.194845 -1.569186,0.939299 -2.020191,1.732536 0.116842,0.603011 0.196077,1.080742 0.196364,1.205155 -0.004,0.432412 -0.640479,0.531423 0.08928,0.606474 0.93244,0.09584 1.689474,2.121361 1.470431,2.498351 -0.139235,0.240165 -0.33445,0.329938 0.01608,0.67835 0.05282,0.05282 0.453302,0.448 0.919809,0.911876 2.042871,-0.176082 3.826507,-0.703464 5.065837,-2.226721 C 20.904978,38.534062 19.820098,36.823753 19.60737,36.425691 19.405263,36.04668 19.217512,35.608206 18.944498,34.834598 18.720287,34.194062 18.48,33.236866 18.34823,32.041237 18.20756,30.81501 18.228804,30.522309 18.192344,29.736289 17.977033,29.922186 17.557895,29.820577 17.23866,29.485732 16.729952,28.952 16.162966,27.648701 16.206603,26.515134 c 0.03732,-0.983175 0.256651,-2.064784 0.831674,-2.198722 0.4289,-0.09988 0.621819,0.116042 0.805264,0.538351 0.09847,0.227175 0.19177,0.857031 0.19177,0.857031 0,0 0.157895,-2.082103 1.478182,-3.068743 1.571196,-1.173979 8.23665,-1.860701 12.68555,-7.407587 -0.447847,2.584082 -1.669952,4.88701 -4.08,7.200041 4.280096,0.550474 8.917321,-5.735959 9.121148,-7.045031 0.643924,3.002639 4.519809,6.743093 4.683445,9.461402 0.198661,-0.415381 0.376077,-0.638227 0.804976,-0.53835 0.575311,0.133938 0.812441,1.214969 0.831962,2.198721 0.02239,1.122021 -0.492344,2.468619 -1.032344,2.970598 -0.485455,0.451464 -0.804976,0.349856 -0.953398,0.250557 0.02038,0.301361 0.08641,0.671711 -0.0069,1.84367 -0.08785,0.849237 -0.17512,1.626021 -0.36,2.405402 -0.267273,1.133567 -0.511866,1.892742 -0.959713,2.718021 -0.409665,0.756288 -0.554642,0.90235 -1.125933,1.745814 1.171866,2.283011 2.678469,2.719753 4.289856,2.740825 0.02383,-0.0228 0.04737,-0.04647 0.0712,-0.06899 0.790909,-0.735216 1.822967,-1.030804 1.332345,-1.348618 -0.481723,-0.312042 -0.275885,-1.316 0.193493,-2.154557 0.695885,-1.243835 1.762392,-1.02734 1.826411,-1.129237 0.05426,-0.08718 -0.13866,-0.146928 -0.171387,-0.710103 -0.0026,-0.112 0.04134,-0.380742 0.120861,-0.732907 z M 11.3489,40.674474 c -0.178852,-0.284907 -0.355407,-0.727711 -0.537417,-1.229691 -0.22622,-0.811711 -0.27732,-1.171381 -0.08584,-1.382103 0.126603,-0.08891 0.169378,-0.173195 0.150144,-0.260082 -5.8553115,0.424041 -7.3297613,-2.513072 -8.2053594,-3.425237 -0.459043,-0.389114 -0.328421,1.796618 1.0007656,3.352206 -1.4661244,0.04734 -2.2337799,-0.729443 -2.81827754,-1.467835 -0.65167464,-0.734062 -1.18449761,1.940371 0.17023924,3.742185 0.9964593,1.325526 2.2116746,1.540866 2.2116746,1.540866 -0.8112918,0.242763 -1.5554067,-0.174927 -1.764689,-0.290391 -0.434354,-0.240165 0.2497608,1.907464 4.2465072,2.534721 1.6934928,0.265567 3.7690909,-0.119793 5.7002873,-1.685484 0.34622,-0.280866 0.686985,-0.484371 1.019139,-0.638516 -0.262967,-0.0061 -0.692154,-0.056 -1.087177,-0.790639 z m 47.576267,0.596949 c 0.223924,0.434721 -1.979425,2.917196 -6.111674,2.511917 -3.275024,-0.32099 -4.421627,-2.35835 -4.884976,-2.489113 -0.107369,-0.03031 -0.215024,-0.056 -0.323254,-0.0788 -0.07923,-0.10565 -0.157607,-0.13567 -0.139234,-0.243629 0.03445,-0.200041 0.726315,0.208124 1.479904,-0.992124 0.142966,-0.218804 0.779713,-1.364783 0.411675,-1.689814 -0.251197,-0.22198 -0.160192,-0.336866 -0.02498,-0.476289 1.082009,0.133361 2.573971,0.08573 4.095789,-0.364 2.640574,-0.779959 3.91378,-2.881402 4.12823,-3.063546 0.476268,-0.404413 0.330143,1.780453 -0.998182,3.335752 2.054067,0.104784 2.694258,-1.587917 3.062297,-1.587917 0.445263,0 1.166411,4.157567 -2.603828,5.391587 0.719139,0.412784 1.781627,-0.500536 1.908229,-0.25402 z"
               id="Fill-12" />
            <path
               style="fill:#bb252d"
               inkscape:connector-curvature="0"
               d="m 20.57311,30.067959 c 0,-0.161361 0.10622,-0.282598 0.300287,-0.282598 0.157895,0.0029 0.370622,0.122392 0.367751,0.287216 0.0069,0.208413 -0.213588,0.344083 -0.376938,0.338598 -0.191196,-2.88e-4 -0.295119,-0.135959 -0.2911,-0.343216"
               id="Fill-13" />
            <path
               style="fill:#bb252d"
               inkscape:connector-curvature="0"
               d="m 22.058182,31.070474 c -5.74e-4,-0.17002 0.163636,-0.350144 0.340191,-0.344371 0.18,-0.0101 0.370622,0.171175 0.370622,0.345526 -0.002,0.150392 -0.196651,0.282887 -0.37866,0.282887 -0.16622,0.01241 -0.333876,-0.136825 -0.332153,-0.284042"
               id="Fill-14" />
            <path
               style="fill:#bb252d"
               inkscape:connector-curvature="0"
               d="m 23.313301,29.211505 c 5.75e-4,-0.13567 0.205551,-0.302515 0.399618,-0.301367 0.124593,0.0029 0.324976,0.163965 0.321531,0.311182 -0.06976,0.241897 -0.190335,0.344371 -0.322393,0.344083 -0.255215,-0.0046 -0.402775,-0.105362 -0.398756,-0.353898"
               id="Fill-15" />
            <path
               style="fill:#bb252d"
               inkscape:connector-curvature="0"
               d="m 24.83311,30.511629 c 0.0049,-0.17666 0.08699,-0.330227 0.298278,-0.329365 0.173397,0.002 0.305454,0.154148 0.304306,0.320994 0,0.183876 -0.136938,0.360536 -0.310909,0.338598 -0.20957,0 -0.291388,-0.164536 -0.291675,-0.330227"
               id="Fill-16" />
            <path
               style="fill:#bb252d"
               inkscape:connector-curvature="0"
               d="m 26.314163,28.91967 c 0.0011,-0.174639 0.113971,-0.311753 0.313205,-0.311753 0.202106,0.0061 0.321819,0.13798 0.317799,0.305114 -8.61e-4,0.17233 -0.120287,0.315505 -0.327846,0.314928 -0.196651,0.0014 -0.305168,-0.148371 -0.303158,-0.308289"
               id="Fill-17" />
            <path
               style="fill:#bb252d"
               inkscape:connector-curvature="0"
               d="m 33.321531,29.006268 c 0.03014,-0.184742 0.125455,-0.28866 0.325263,-0.251423 0.170527,0.03753 0.27646,0.178103 0.267273,0.37266 -0.03502,0.166268 -0.193493,0.228907 -0.380957,0.190804 -0.18201,-0.03406 -0.236555,-0.186185 -0.211579,-0.312041"
               id="Fill-18" />
            <path
               style="fill:#bb252d"
               inkscape:connector-curvature="0"
               d="m 35.322488,29.376619 c 0.02928,-0.147217 0.152727,-0.275093 0.29311,-0.249114 0.173971,0.03175 0.27445,0.195711 0.243732,0.353608 -0.03072,0.172908 -0.177416,0.290104 -0.350526,0.257196 -0.148134,-0.02973 -0.218469,-0.187629 -0.186316,-0.36169"
               id="Fill-19" />
            <path
               style="fill:#bb252d"
               inkscape:connector-curvature="0"
               d="m 37.982584,29.128948 c 0.03703,-0.180701 0.175406,-0.268742 0.419426,-0.222845 0.187464,0.03435 0.264976,0.164825 0.230526,0.347258 -0.03789,0.194268 -0.156747,0.348124 -0.349952,0.31233 -0.245742,-0.04561 -0.335598,-0.243052 -0.3,-0.436743"
               id="Fill-20" />
            <path
               style="fill:#bb252d"
               inkscape:connector-curvature="0"
               d="m 36.437799,30.58466 c 0.03876,-0.206969 0.210144,-0.298474 0.434928,-0.262969 0.174833,0.0381 0.284498,0.210433 0.248326,0.390268 -0.03215,0.168288 -0.197799,0.301361 -0.362584,0.267299 -0.237703,-0.04301 -0.352249,-0.225732 -0.32067,-0.394598"
               id="Fill-21" />
            <path
               style="fill:#bb252d"
               inkscape:connector-curvature="0"
               d="m 38.523158,30.732454 c 0.03904,-0.199753 0.206411,-0.286062 0.405933,-0.245073 0.18488,0.02511 0.319234,0.177815 0.278182,0.367176 -0.03388,0.178969 -0.219617,0.302226 -0.391005,0.269897 -0.203254,-0.03724 -0.331292,-0.208701 -0.29311,-0.392"
               id="Fill-22" />
            <path
               style="fill:#912637"
               inkscape:connector-curvature="0"
               d="m 29.455407,11.24532 c -2.387082,0.234969 -8.985359,5.941484 -11.860766,6.839505 4.94756,1.262886 9.035311,-5.212907 11.860766,-6.839505 z m 16.224114,14.840577 c -0.658277,-4.070681 -4.468995,-5.558722 -6.18976,-8.636124 -1.733684,-3.099917 -1.578086,-6.204453 -3.517608,-6.549402 0,0 -0.621244,8.162433 -7.851387,11.533113 -2.88e-4,5.78e-4 -0.0011,0.0012 -0.0017,0.002 4.280383,0.550474 8.917321,-5.735959 9.121148,-7.045031 0.643924,3.002639 4.520096,6.743093 4.683445,9.461402 0.198948,-0.415381 0.376077,-0.638227 0.804976,-0.53835 0.575311,0.133938 0.812728,1.214969 0.832249,2.198721 0.0221,1.122021 -0.492631,2.468619 -1.032344,2.970598 -0.485742,0.451464 -0.805263,0.349856 -0.953685,0.250557 0.02038,0.301361 0.08641,0.671711 -0.0069,1.84367 -0.08785,0.849237 -0.17512,1.626021 -0.36,2.405402 -0.267273,1.133567 -0.511866,1.892742 -0.959713,2.718021 -0.409665,0.756288 -0.554642,0.90235 -1.125933,1.745814 1.171866,2.283011 2.678469,2.719753 4.290143,2.740825 0.02383,-0.0228 0.04708,-0.04647 0.0712,-0.06899 0.790622,-0.735216 1.822967,-1.030804 1.332058,-1.348618 -0.481723,-0.312042 -0.275885,-1.316 0.19378,-2.154557 0.0244,-0.04388 0.04995,-0.08169 0.0755,-0.121814 -1.068517,-0.01588 -1.992057,-0.148372 -2.20823,-1.272124 -0.460765,-2.395876 3.657417,-4.849196 2.802775,-10.135134 z m 7.051867,15.974722 c -1.525264,-0.495918 -2.597512,-1.674227 -3.467656,-2.689444 -0.120574,0.277402 -0.259809,0.519588 -0.317799,0.608495 -0.753301,1.200248 -1.445167,0.792083 -1.479617,0.992124 -0.01866,0.107959 0.06,0.137979 0.138947,0.243629 0.10823,0.0228 0.216172,0.04849 0.323254,0.0788 0.463349,0.130763 1.609952,2.168123 4.884976,2.489113 3.360574,0.329361 5.445072,-1.250474 5.986507,-2.086144 -0.34421,0.263835 -2.319043,1.582722 -6.068612,0.363423 z M 48.024402,26.598557 c 0.526794,-2.503547 0.378373,-4.967258 -0.07349,-7.191382 v -2.88e-4 C 46.469856,14.843175 42.158182,12.737113 39.791196,7.5822268 40.080287,15.675959 48.780287,18.113113 48.024402,26.598557 Z M 18.944498,34.834598 C 18.720574,34.194062 18.48,33.236866 18.34823,32.041237 18.207847,30.81501 18.229091,30.522309 18.192344,29.736289 17.977033,29.922186 17.557895,29.820577 17.23866,29.485732 16.729952,28.952 16.163254,27.648701 16.206603,26.515134 c 0.03732,-0.983175 0.256651,-2.064784 0.831962,-2.198722 0.428899,-0.09988 0.621531,0.116042 0.805263,0.538351 0.09818,0.227175 0.191483,0.857031 0.191483,0.857031 0,0 0.157895,-2.082103 1.478182,-3.068743 0.121435,-0.09035 0.276172,-0.178103 0.454737,-0.265278 2.134736,-1.043216 8.120957,-2.022928 12.225933,-7.136536 0.0052,-0.01183 0.0112,-0.02396 0.01636,-0.03579 1.535885,-2.13002 1.365072,-3.820989 0.972058,-4.227711 0,0 -1.650144,2.810103 -3.675503,4.647134 -4.380861,3.973113 -13.724784,4.860165 -15.780287,8.435216 -1.048421,-5.992288 2.490431,-9.462845 2.490431,-9.462845 -0.354546,-0.122103 -2.136746,2.023217 -2.928804,3.256949 C 16.676268,-1.0882474 33.633589,1.103835 34.657895,4.8795051 40.560574,1.034268 44.047464,11.681773 46.059904,13.672949 l 0.0026,-0.0254 C 45.427464,12.207423 44.856746,11.150351 44.656938,10.642021 42.941627,6.2841237 40.657608,0.71674227 35.045454,2.4865155 34.15177,-0.76812371 24.623541,-0.37352577 20.395981,3.1117526 16.205454,6.5667216 13.849665,11.225113 12.76823,18.909237 c -0.867273,2.036784 -2.9101439,8.275588 2.783827,14.711835 0,0 1.466125,1.649979 1.287847,3.040742 -0.115119,0.89831 -0.888803,1.090268 -2.025933,1.340248 0.389283,0.636495 0.603732,1.438103 0.474259,1.661526 -0.139522,0.240165 -0.334737,0.329938 0.01579,0.67835 0.0534,0.05282 0.453302,0.448 0.919809,0.911876 2.042871,-0.176082 3.826794,-0.703464 5.065837,-2.226721 -0.384689,-0.493031 -1.469569,-2.20334 -1.682297,-2.601402 -0.202105,-0.379011 -0.389856,-0.817485 -0.66287,-1.591093 z m -6.508421,6.630515 c -0.332154,0.154145 -0.672632,0.35765 -1.019139,0.638516 C 9.4857416,43.66932 7.4101435,44.05468 5.7166507,43.789113 3.1673684,43.389031 1.9670813,42.370928 1.5439234,41.748 c 0.448134,0.307711 1.8261245,1.092866 3.8853589,0.797856 3.5796172,-0.512949 4.3475598,-1.900536 5.4511007,-2.916042 0.158182,0.423464 0.312344,0.796124 0.468517,1.04466 0.395023,0.734639 0.82421,0.784577 1.087177,0.790639 z"
               id="Fill-23" />
            <path
               style="fill:#fffffe"
               inkscape:connector-curvature="0"
               d="m 26.509952,36.646227 c 0.740957,0.402969 1.639809,0.982886 2.700861,1.055051 1.04957,0.07361 2.384211,0.07159 3.113972,-0.28635 0.682679,-0.334845 1.069665,-1.028784 1.545933,-1.472165 -1.38201,0.397484 -2.74823,0.0089 -4.243063,0.149526 -0.15244,0.01241 -0.738947,0.07014 -0.889952,0.07678 -0.947942,0.06379 -1.757225,-0.131629 -2.710047,-0.139134 0.183444,0.145773 0.351961,0.388825 0.482296,0.616289"
               id="Fill-24" />
            <path
               style="fill:#fffffe"
               inkscape:connector-curvature="0"
               d="m 24.952823,25.800701 c -0.06689,0.358804 -0.08153,0.778804 -0.326412,0.954309 -0.575598,-0.04792 -1.147751,-0.05513 -1.385454,0.248536 -0.05254,0.05167 -0.203828,-0.0084 -0.330431,-0.163958 -0.127177,-0.154433 -0.266411,-0.60532 0.08871,-0.980289 0.188039,-0.0814 0.371197,0.137113 0.623541,0.0814 0.164785,-0.03608 0.23311,-0.181856 0.242871,-0.373526 -0.130048,-0.244783 -0.471101,-0.414804 -0.910622,-0.09959 -0.483732,0.256329 -0.893397,0.90235 -0.928708,1.302721 -0.0066,0.120949 0.20067,0.383629 0.492057,0.394021 0.06029,0.0012 0.139235,0.03435 0.180574,0.09988 0.685263,0.02511 2.57713,-0.06206 3.113397,-0.659299 -0.258947,-0.39835 -0.463923,-1.25567 -0.859521,-0.804206"
               id="Fill-25" />
            <path
               style="fill:#fffffe"
               inkscape:connector-curvature="0"
               d="m 37.134833,27.184825 c -0.002,-0.32734 0.366315,-0.292413 0.518468,-0.46965 0.192058,-0.333691 -0.0155,-0.98202 -0.470526,-1.001072 0.0011,0.215629 0.008,0.716165 -0.266411,0.990681 -0.274163,0.271628 -0.801532,-0.08169 -1.337799,-0.07419 -0.332728,0.0055 -0.412823,0.263835 -0.750718,0.125278 0.03301,-0.515835 0.261531,-0.932371 0.414545,-0.965278 0.152728,-0.03262 0.45646,0.08602 0.778278,0.06033 0.125454,-0.06495 0.292249,-0.382186 0.124306,-0.528536 -0.289091,-0.227464 -0.626698,-0.125279 -0.857225,0.0081 -0.248325,0.141443 -0.714545,0.620907 -0.939043,0.932083 -0.0534,0.0739 -0.100191,0.159051 -0.146698,0.247092 0.315502,0.458392 1.107272,0.784866 2.039713,0.781999 0.310909,-8.85e-4 0.624688,-0.03899 0.89311,-0.106823"
               id="Fill-26" />
            <path
               style="fill:#fffffe"
               inkscape:connector-curvature="0"
               d="m 48.171101,37.561567 c -0.373493,-0.320124 -0.748709,-0.662186 -1.131388,-0.650639 -0.383541,0.01414 -0.529952,0.07245 -0.608038,0.389691 -0.07694,0.316371 0.151004,0.223422 0.506985,0.274804 0.358278,0.04907 0.746412,0.305113 0.930718,0.45002 0.200957,0.164248 0.58622,0.284907 0.688708,0.110846 0.10134,-0.172042 -0.03847,-0.272784 -0.386985,-0.574722"
               id="Fill-27" />
            <path
               style="fill:#fffffe"
               inkscape:connector-curvature="0"
               d="m 12.719139,37.425608 c -0.438661,0.04619 -0.966029,0.08198 -1.194833,0.377279 -0.227081,0.293278 -0.261531,0.37035 -0.101052,0.654969 0.15933,0.287793 0.23799,0.04936 0.491483,-0.181279 0.255789,-0.230927 0.565263,-0.360824 0.774832,-0.392866 0.230814,-0.03377 0.514737,-0.155299 0.595407,-0.410474 0.06201,-0.195423 -0.153875,-0.09035 -0.565837,-0.04763"
               id="Fill-28" />
            <path
               style="fill:#3b302f"
               inkscape:connector-curvature="0"
               d="m 29.862488,49.294433 c 0.246316,-0.10132 0.730622,-0.143175 1.034067,0.06206 0.292823,0.197732 0.442392,0.337443 0.581053,0.594062 0.142392,0.264123 0.271866,0.651216 0.180861,1.07468 -0.12689,0.587423 -0.893971,1.040041 -1.715598,0.82932 -1.376555,-0.353031 -0.887656,-2.228454 -0.08038,-2.560124 z m 0.274163,-4.846598 c 2.187847,-0.02598 4.497129,-1.470144 7.181914,-3.764412 0.422296,5.327505 0.966028,1.956247 0.984114,-0.49967 0.02268,-0.58598 0.04421,-0.615712 0.584785,-1.388454 0.77512,-1.167918 0.899139,-1.244124 1.360191,-2.094804 0.447847,-0.825279 0.692441,-1.584454 0.959713,-2.718021 0.184881,-0.779381 0.272153,-1.556165 0.36,-2.405402 0.0933,-1.171959 0.02727,-1.542309 0.0069,-1.84367 -0.15043,0.848371 -0.365741,2.394722 -0.731196,3.694845 -0.668325,2.377114 -1.408134,3.385114 -2.212823,4.329897 -0.61866,0.728578 -1.138851,1.20833 -2.159713,2.167258 -0.888229,0.835382 -1.550526,1.420784 -2.828038,2.163217 -0.594545,0.345525 -1.588421,1.064577 -3.415407,1.085649 -1.941531,0.02338 -3.356842,-0.965856 -4.127942,-1.454845 -0.868708,-0.550763 -1.211771,-0.829609 -1.983445,-1.452248 -0.575885,-0.464742 -1.48134,-1.218721 -1.920287,-1.681732 -0.748421,-0.788041 -1.537321,-1.680866 -2.157991,-2.802309 -0.620095,-1.07468 -0.953971,-1.896784 -1.355885,-3.674639 -0.08842,-0.38998 -0.328995,-1.62833 -0.489761,-2.372206 0.03703,0.78602 0.01522,1.078721 0.156173,2.304948 0.131483,1.195629 0.37177,2.152825 0.59598,2.793361 0.273015,0.773608 0.460766,1.212082 0.662871,1.591093 0.22134,0.413938 1.387464,2.250391 1.726794,2.657979 0.327273,0.378433 0.457321,0.909278 0.454737,1.19101 -0.0049,0.640536 -0.07005,2.448413 -0.07005,2.448413 -0.543157,-0.571835 -1.363349,-1.031382 -1.272631,-0.197732 0.112823,1.045237 0.03675,2.050062 -0.270431,3.118103 -0.276746,0.957773 -1.175598,2.029278 -1.712153,2.247794 0.601723,0.404123 1.975694,-0.662186 2.451388,-1.620248 0.258086,-0.518433 0.37177,-0.988948 0.425454,-1.327835 0.06861,-0.420577 0.402488,0.06812 0.502106,0.216495 0.452153,0.674887 0.441244,1.364206 1.374258,1.517773 0.698469,0.115464 1.291005,-0.739257 1.303636,-0.697979 0.262106,0.924577 0.996747,2.008206 1.543637,2.105773 0.85866,0.153278 1.441435,-0.65266 1.441435,-0.65266 0.399904,0.587423 0.94622,1.05765 1.632057,1.240083 -0.741531,0.533732 -1.505741,1.666433 -1.142009,2.907381 0.329569,0.974516 1.580383,1.412413 2.613014,1.341691 1.431388,-0.107093 2.646316,-1.147423 2.289474,-2.792784 v -0.0017 c -0.187464,-0.693073 -0.617799,-1.087671 -1.114737,-1.471011 0.929569,-0.339752 1.157799,-0.81633 1.341531,-1.136453 0.244593,-0.430104 0.591962,0.680948 1.626029,0.67633 1.103541,-0.0046 1.747751,-2.256166 1.747751,-2.256166 0,0 0.523062,0.810557 1.072249,0.661609 0.428899,-0.114887 1.095215,-1.27299 1.095215,-1.27299 0.357704,-0.651216 0.223924,-0.640247 0.70622,0.621196 0.774546,2.02668 2.748804,2.544825 1.972536,1.609567 -0.776555,-0.936124 -1.417607,-2.278969 -1.477895,-3.67868 -0.04019,-0.998475 -0.0666,-1.576949 -0.494641,-1.739176 -0.302871,-0.116618 -0.502105,-0.0038 -0.642488,0.388825 -0.278756,0.79266 -0.796076,2.701856 -1.338086,2.618144 -0.543445,-0.08256 -0.617512,-0.877237 -1.076842,-0.752536 -0.907464,0.245072 -0.735502,2.056701 -1.713301,2.41666 -0.599713,0.21967 -0.926986,-1.15666 -1.481627,-0.983753 -0.359426,0.112001 -0.650239,0.701444 -1.136842,1.277897 -0.518469,0.615134 -1.138278,0.667382 -1.56201,1.042062 -0.94823,-0.486103 -1.823253,-0.766103 -2.311292,-1.987422 -0.45244,-1.130104 -1.310526,0.93468 -1.771292,0.571835 -0.777129,-0.613114 -0.740095,-1.901691 -1.465837,-2.315341 -0.678086,-0.384783 -1.239904,1.456578 -1.630335,0.910722 -0.226794,-0.316082 -0.391579,-0.564907 -0.519904,-0.775629 0.02383,-1.606392 0.0333,-2.783258 0.05742,-3.968783 2.963254,2.457649 5.208517,3.888536 7.357321,3.863711 z"
               id="Fill-29" />
            <path
               style="fill:#3b302f"
               inkscape:connector-curvature="0"
               d="m 28.737703,36.169072 c 0.151005,-0.0066 0.737512,-0.06437 0.889952,-0.07678 1.494833,-0.140578 2.861053,0.247958 4.243063,-0.149526 -0.476268,0.443381 -0.863254,1.13732 -1.545933,1.472165 -0.729474,0.357938 -2.064402,0.359959 -3.113972,0.28635 -1.061052,-0.07217 -1.959904,-0.652082 -2.700861,-1.055051 -0.200957,0.602721 0.154163,0.833649 0.61378,1.243546 0.52134,0.468495 1.332345,1.107588 2.557608,1.140206 1.772153,0.0459 3.169665,-0.12701 4.058756,-1.600041 0.273588,-0.482928 1.005933,-1.475051 1.769282,-1.842515 0.429187,-0.205237 1.406986,-0.665073 1.245933,-0.919382 -0.290239,-0.373814 -0.868708,-0.308 -1.283254,-0.213897 -0.314928,0.06437 -0.409952,0.645732 -0.93732,0.688743 -1.246507,0.160494 -2.457704,-0.277403 -3.994737,-0.228042 -1.105837,0.03146 -1.977703,0.289815 -3.161053,0.384495 -1.139713,0.09064 -1.535598,-0.514392 -2.605837,-0.646598 -0.485742,-0.06235 -0.575598,0.219959 -0.20756,0.686145 0.345359,0.357649 0.947656,0.697402 1.423924,0.689897 0.96976,0.0023 1.787368,0.204948 2.748229,0.140288"
               id="Fill-30" />
            <path
               style="fill:#3b302f"
               inkscape:connector-curvature="0"
               d="m 33.363445,22.466103 c 0.04421,0.188784 0.709665,0.0023 1.022297,-0.119505 0.239712,-0.09381 0.439808,-0.197155 0.744402,-0.261815 0.209282,-0.04445 0.511291,-0.07418 0.716555,-0.07563 0.470526,-0.0029 0.776555,0.0043 1.183062,0.07072 0.641052,0.105938 1.851387,0.743877 1.951005,0.463588 0.110526,-0.523052 -0.345359,-0.944495 -0.691867,-1.13299 -0.857799,-0.463299 -2.16488,-0.704907 -3.333301,-0.228618 -0.391005,0.187628 -0.52421,0.346391 -0.894258,0.598103 -0.255503,0.172618 -0.726603,0.45435 -0.697895,0.686144"
               id="Fill-31" />
            <path
               style="fill:#3b302f"
               inkscape:connector-curvature="0"
               d="m 31.951866,31.356247 c -0.678086,-0.204948 -0.835694,0.52565 -1.526412,0.524207 -0.967177,-0.0012 -1.168708,-0.623794 -1.682296,-0.570104 -0.420861,0.04676 -0.639617,0.692495 -0.927273,0.73666 -0.230239,-0.04734 -0.182297,0.342928 0.109665,0.41798 0.580192,0.146639 0.453589,-0.342351 0.837416,-0.207258 0.225072,0.08746 0.273589,0.479175 0.924402,0.777649 0.649953,0.297031 1.294163,-0.05658 1.876938,-0.585979 0.319235,-0.311175 0.883924,-0.334845 0.914641,-0.479175 0.0155,-0.07245 -0.100478,-0.125567 -0.147272,-0.196 -0.108804,-0.164536 -0.217608,-0.370928 -0.379809,-0.41798"
               id="Fill-32" />
            <path
               style="fill:#3b302f"
               inkscape:connector-curvature="0"
               d="m 21.390718,27.137773 c 0.273875,0.145485 0.86067,0.429526 1.324593,0.294722 0.05455,-0.178392 -0.09761,-0.266433 -0.196938,-0.268165 -0.291387,-0.01039 -0.49866,-0.273072 -0.492057,-0.394021 0.03531,-0.400371 0.445263,-1.046392 0.928708,-1.302721 0.439521,-0.315217 0.780574,-0.145196 0.910622,0.09959 -0.0098,0.19167 -0.07809,0.337444 -0.242871,0.373526 -0.252344,0.05571 -0.435502,-0.162804 -0.623541,-0.0814 -0.355119,0.374969 -0.215885,0.825856 -0.08871,0.980289 0.126603,0.155587 0.277895,0.215628 0.330431,0.163958 0.237703,-0.30367 0.809569,-0.296453 1.385454,-0.248536 0.244881,-0.175505 0.259522,-0.595505 0.326412,-0.954309 0.410813,-0.468495 0.615789,0.474268 0.889378,0.84866 0.177129,0.243917 0.371196,0.536618 0.615502,0.561443 0.415694,0.04272 0.956842,-0.294144 0.751292,-0.909567 -0.119713,-0.157897 -0.45043,0.161072 -0.580191,0.05571 -0.499235,-0.475712 -0.05053,-1.447629 -1.083158,-1.967506 -1.106412,-0.557113 -2.822297,-0.363422 -3.508995,0.502846 -0.267273,0.337154 -0.557225,0.709525 -0.774259,1.278474 -0.103923,0.379299 -0.203253,0.769856 0.128326,0.96701"
               id="Fill-33" />
            <path
               style="fill:#3b302f"
               inkscape:connector-curvature="0"
               d="m 35.791866,24.169773 c -0.450718,0.14866 -1.153206,0.790062 -1.399234,1.163299 -0.304594,0.462144 -0.497512,1.29233 -0.889953,1.306763 -0.152727,-0.05398 -0.0072,-0.397485 -0.236268,-0.372948 -0.295693,0.06639 -0.475119,0.327628 -0.39732,0.634474 0.05627,0.154144 0.190048,0.270474 0.40134,0.295588 0.702201,0.09266 0.809569,-0.560001 1.078277,-0.934392 0.224498,-0.311176 0.690718,-0.79064 0.939043,-0.932083 0.230527,-0.133361 0.568134,-0.235546 0.857225,-0.0081 0.167943,0.14635 0.0011,0.463299 -0.124306,0.528536 -0.321818,0.02569 -0.62555,-0.09295 -0.778278,-0.06033 -0.153014,0.03291 -0.381531,0.449443 -0.414545,0.965278 0.337895,0.138557 0.41799,-0.119794 0.750718,-0.125278 0.536267,-0.0075 1.063636,0.345814 1.337799,0.07419 0.274449,-0.274516 0.267559,-0.775052 0.266411,-0.990681 0.455024,0.01905 0.662584,0.667381 0.470526,1.001072 -0.152153,0.177237 -0.520478,0.14231 -0.518468,0.46965 1.55598,0.314928 1.702966,-0.336289 1.822679,-0.691052 0.08469,-0.284618 0.05254,-0.518144 -0.07895,-0.906969 -0.455886,-1.162144 -1.841053,-1.825196 -3.086699,-1.417031"
               id="Fill-34" />
            <path
               style="fill:#3b302f"
               inkscape:connector-curvature="0"
               d="m 25.943828,21.651505 c -0.320383,-0.200618 -0.583062,-0.397484 -0.931579,-0.540082 -0.27933,-0.100743 -0.71512,-0.182145 -1.10067,-0.186186 -0.957703,0.367175 -1.83244,0.65468 -2.565072,0.910144 -0.244306,0.287217 -0.358277,0.634186 -0.269282,0.886186 0.0999,0.281443 1.290431,-0.422887 1.920861,-0.584825 0.472536,-0.121526 0.708517,-0.118639 1.177034,-0.144618 0.204401,-0.01126 0.508421,0.0078 0.719138,0.03233 0.339618,0.03955 0.494641,0.145195 0.760766,0.213608 0.321818,0.08602 0.96,0.246515 1.02689,0.05571 0.03215,-0.225732 -0.477991,-0.478886 -0.738086,-0.642268"
               id="Fill-35" />
            <path
               style="fill:#3b302f"
               inkscape:connector-curvature="0"
               d="m 46.820383,40.701608 c -1.0889,-0.07014 -1.053589,-0.17435 -1.417608,-0.417979 -0.118565,-0.07765 -0.590526,0.15934 -0.252632,0.463587 0.116556,0.10132 0.369761,0.404413 0.272441,0.770145 -0.1289,0.475711 -0.821053,1.38268 -0.143828,1.292041 0.771387,-0.09872 0.951675,-1.194763 1.036938,-1.35699 0.0867,-0.164536 0.217894,-0.229484 0.386124,-0.252 0.32555,-0.03926 0.672345,-0.464165 0.118565,-0.498804"
               id="Fill-36" />
            <path
               style="fill:#3b302f"
               inkscape:connector-curvature="0"
               d="m 49.036938,36.121443 c -0.217034,0.473691 -0.378086,1.115093 -1.007369,0.777938 -0.790622,-0.422886 0.197225,-1.058804 0.802393,-1.702226 0.567847,-0.600701 0.373493,0.551629 0.204976,0.924288"
               id="Fill-37" />
            <path
               style="fill:#3b302f"
               inkscape:connector-curvature="0"
               d="m 13.235024,40.862103 c 0.959713,-0.395464 0.933014,-0.409319 1.285837,-0.695093 0.111388,-0.0892 0.393015,0.06004 0.132919,0.498227 -0.109665,0.177815 -0.279904,0.09353 -0.244593,0.488701 0.04708,0.509485 1.120478,1.281072 0.397607,1.427423 -0.656842,0.132783 -1.03177,-1.089691 -1.082583,-1.264619 -0.05483,-0.17233 -0.344785,0.01559 -0.488326,0.002 -0.309473,-0.03146 -0.562966,-0.222846 -8.61e-4,-0.45666"
               id="Fill-38" />
            <path
               style="fill:#3b302f"
               inkscape:connector-curvature="0"
               d="m 11.163732,35.852412 c 0.09014,0.690186 0.631866,1.473031 1.077129,1.040042 0.283062,-0.275959 -0.258373,-0.349856 -0.638469,-1.947877 -0.245741,-1.037443 -0.509569,0.374103 -0.43866,0.907835"
               id="Fill-39" />
            <path
               style="fill:#3b302f"
               inkscape:connector-curvature="0"
               d="m 53.136459,46.372907 h 0.301436 c 0.15244,0 0.263253,-0.09208 0.263253,-0.241897 0,-0.14202 -0.110813,-0.241608 -0.263253,-0.241608 h -0.301436 z m 0.797512,0.571547 v 0.03089 h -0.202392 l -0.324115,-0.441361 h -0.271005 v 0.441361 H 52.941531 V 45.72054 h 0.511579 c 0.248038,0 0.442679,0.149526 0.442679,0.410474 0,0.188207 -0.114545,0.341485 -0.293971,0.376124 z m 0.488613,-0.598392 c 0,-1.481402 -2.12957,-1.481402 -2.12957,0 0,1.477361 2.12957,1.477361 2.12957,0 z m -2.358661,0 c 0,-1.746103 2.583732,-1.746103 2.583732,0 0,1.746103 -2.583732,1.753608 -2.583732,0 z"
               id="Fill-40" />
          </g>
        </g>
      </g>
    </g>
  </g>
</svg>
